
<svg xmlns="http://www.w3.org/2000/svg" width="1319" height="1051" viewBox="0 0 1319 1051" preserveAspectRatio="xMidYMid meet">

<g transform="translate(0.0,1051) scale(0.1,-0.1)"
fill="#ff355e" stroke="none">
<path d="M9110 10433 c-307 -31 -680 -150 -1408 -449 -166 -68 -307 -124 -313
-124 -18 0 -73 -31 -102 -59 -35 -32 -63 -84 -72 -134 -16 -84 -2 -108 346
-609 181 -260 325 -475 321 -479 -12 -12 -4055 -1400 -4068 -1397 -13 3 -308
367 -302 373 2 2 167 60 366 129 200 69 382 136 406 150 95 56 158 157 158
256 0 143 -140 260 -311 260 -51 0 -315 -52 -1017 -200 -522 -110 -967 -207
-989 -215 -89 -33 -157 -124 -171 -226 -7 -53 16 -153 67 -294 27 -76 41 -99
88 -146 40 -39 73 -62 114 -77 102 -38 133 -33 457 78 161 56 296 100 300 98
10 -4 370 -457 375 -472 2 -6 -76 -360 -173 -786 l-178 -775 -84 5 c-262 15
-538 -1 -755 -45 -1126 -231 -1968 -1155 -2106 -2310 -15 -120 -14 -430 1
-570 28 -261 111 -564 224 -813 203 -452 543 -848 966 -1125 247 -161 623
-316 900 -370 235 -46 295 -52 550 -51 272 1 422 18 641 73 357 91 722 274
1014 508 133 107 352 334 453 469 266 356 437 768 509 1224 25 162 25 576 0
739 -10 62 -16 115 -14 118 3 2 69 26 147 54 l142 49 59 -54 c73 -68 210 -138
313 -161 74 -17 76 -18 76 -47 0 -29 26 -480 33 -570 l4 -47 -78 -26 c-86 -29
-122 -53 -144 -95 -50 -96 33 -219 138 -206 21 2 167 48 325 102 256 87 291
102 325 135 86 84 26 239 -93 239 -19 0 -64 -9 -99 -20 -36 -11 -66 -18 -67
-17 -1 1 -7 94 -13 207 -7 113 -14 239 -18 280 l-5 75 58 24 c218 89 389 292
445 526 17 75 15 249 -5 325 -21 81 -75 197 -121 260 -19 26 -35 50 -35 53 0
10 1571 3742 1578 3749 6 6 447 -611 460 -643 2 -4 -57 -68 -131 -141 -73 -73
-167 -176 -209 -228 -476 -598 -674 -1357 -548 -2098 171 -997 880 -1804 1844
-2096 256 -78 476 -110 756 -110 276 0 446 20 687 84 337 88 706 274 983 495
119 95 340 321 433 443 576 753 716 1751 366 2602 -214 521 -543 926 -1003
1233 -99 66 -344 197 -446 237 -306 123 -599 186 -915 197 -472 16 -900 -81
-1320 -300 l-105 -55 -661 951 c-364 523 -663 956 -666 963 -4 12 105 61 387
171 541 212 802 286 1020 287 104 1 120 -2 170 -25 105 -49 169 -138 231 -320
28 -79 33 -109 33 -189 1 -86 -2 -99 -26 -141 -64 -109 -219 -212 -457 -305
-96 -38 -134 -58 -166 -89 -73 -72 -84 -182 -25 -263 73 -101 167 -113 340
-43 147 60 312 144 399 205 249 171 375 410 357 677 -9 148 -56 310 -133 462
-139 277 -334 417 -622 446 -102 11 -122 11 -191 4z m-1363 -2420 c-7 -25
-1467 -3496 -1473 -3502 -2 -2 -6 -2 -8 0 -5 5 -48 710 -44 714 2 1 48 17 103
35 114 38 159 73 170 133 11 60 -3 107 -44 148 -63 64 -84 63 -316 -16 -400
-137 -466 -162 -496 -191 -78 -75 -53 -208 48 -250 45 -19 79 -17 152 7 34 12
65 19 68 16 7 -7 44 -599 38 -606 -3 -2 -7 -2 -9 0 -42 49 -1799 2265 -1802
2273 -3 8 626 229 1798 633 992 342 1807 622 1812 622 4 1 6 -7 3 -16z m2953
-554 c297 -30 647 -156 905 -326 392 -258 670 -607 843 -1060 96 -250 145
-595 122 -872 -79 -963 -758 -1735 -1700 -1932 -122 -26 -176 -32 -337 -36
-389 -11 -671 48 -1009 212 -501 242 -872 650 -1068 1177 -136 366 -164 803
-76 1198 82 370 276 727 550 1012 98 103 99 103 118 83 11 -11 302 -427 647
-925 345 -498 639 -918 654 -933 45 -49 98 -71 171 -71 101 0 177 50 215 141
19 45 19 134 1 178 -12 27 -1120 1632 -1283 1857 l-34 47 93 47 c361 181 749
248 1188 203z m-6065 -2164 c472 -594 862 -1085 867 -1092 6 -8 -3 -37 -26
-85 -49 -99 -76 -212 -76 -315 0 -45 -2 -83 -4 -83 -2 0 -54 -18 -116 -40
l-111 -40 -22 53 c-11 28 -54 119 -95 200 -249 502 -667 918 -1179 1175 -92
46 -355 152 -378 152 -8 0 -18 7 -21 15 -3 8 54 278 127 600 l134 585 21 -23
c12 -12 408 -508 879 -1102z m-1759 -488 c3 -8 -106 -500 -243 -1093 -224
-980 -247 -1087 -247 -1169 0 -73 4 -98 21 -131 29 -55 83 -101 135 -115 96
-26 115 -20 1211 357 571 196 1040 355 1042 352 2 -2 9 -64 16 -138 46 -537
-135 -1109 -482 -1525 -535 -639 -1369 -909 -2169 -701 -858 223 -1481 949
-1580 1841 -32 290 4 607 102 895 257 759 932 1317 1723 1424 139 19 464 21
471 3z m709 -182 c353 -165 650 -419 869 -743 75 -111 224 -397 213 -408 -12
-12 -1732 -600 -1735 -594 -2 6 402 1794 413 1827 5 16 106 -19 240 -82z
m2690 -385 c276 -95 405 -399 280 -656 -122 -249 -429 -341 -670 -200 -51 31
-147 130 -173 181 -76 150 -69 340 18 475 38 59 127 143 181 171 102 51 261
64 364 29z"/>
</g>
</svg>
