
<svg version="1.0" xmlns="http://www.w3.org/2000/svg"
 width="1801" height="690" viewBox="0 0 1801 690"
 preserveAspectRatio="xMidYMid meet">

<g transform="translate(0,690) scale(0.1,-0.1)"
fill="#db003a" stroke="none">
<path d="M4372 6800 c-120 -32 -270 -86 -547 -198 -144 -59 -173 -74 -192
-102 -27 -38 -29 -70 -9 -109 8 -15 83 -125 166 -245 84 -120 148 -222 143
-226 -13 -14 -1987 -691 -1999 -686 -10 4 -144 170 -144 179 0 2 81 32 180 67
99 34 195 72 212 84 19 13 40 40 52 68 18 45 18 46 0 84 -23 46 -58 72 -112
85 -36 8 -107 -4 -519 -92 -262 -55 -492 -107 -510 -114 -40 -17 -73 -68 -73
-116 0 -43 36 -154 62 -192 25 -35 73 -60 118 -60 19 0 97 22 172 48 76 26
144 45 151 42 8 -3 54 -56 102 -117 l87 -111 -86 -377 c-47 -207 -86 -381 -86
-386 0 -5 -35 -6 -78 -4 -42 3 -126 2 -187 -3 -563 -45 -1021 -437 -1162 -993
-34 -137 -43 -377 -19 -516 46 -262 164 -493 351 -689 186 -193 382 -303 665
-373 70 -18 117 -21 270 -22 172 -1 193 1 295 28 61 15 144 42 185 58 409 162
711 524 801 961 23 111 30 300 16 424 l-8 72 68 22 69 22 56 -40 c47 -33 83
-49 155 -69 11 -3 18 -50 29 -225 l6 -97 -43 -14 c-57 -19 -85 -56 -72 -94 5
-16 22 -36 37 -44 25 -14 35 -12 184 39 160 54 192 74 192 116 0 54 -50 79
-121 60 l-27 -7 -6 99 c-4 54 -8 115 -10 135 -4 37 -3 39 55 69 187 100 252
324 144 503 l-34 56 386 918 c212 504 389 920 392 924 4 4 57 -65 119 -153
l112 -161 -89 -93 c-178 -187 -289 -396 -343 -648 -28 -133 -30 -380 -4 -502
56 -260 165 -467 342 -654 187 -197 411 -319 699 -383 39 -8 127 -13 250 -12
165 0 202 3 280 23 257 66 439 166 615 337 247 240 381 536 397 879 17 370
-119 714 -384 977 -182 179 -357 277 -617 345 -91 24 -119 27 -286 27 -119 1
-210 -4 -255 -13 -100 -20 -260 -73 -343 -115 l-71 -36 -69 98 c-285 405 -575
827 -576 839 -2 33 482 208 625 226 110 14 165 -3 210 -66 39 -54 73 -167 65
-215 -11 -72 -87 -138 -220 -191 -104 -42 -131 -67 -131 -123 0 -33 6 -45 34
-70 30 -27 39 -30 83 -26 33 4 86 23 154 57 125 62 211 137 250 218 92 186
-16 491 -208 589 -47 24 -66 28 -168 31 -103 3 -127 0 -228 -27z m-509 -1187
c-215 -517 -707 -1680 -712 -1686 -5 -5 -11 34 -15 85 -3 51 -9 129 -12 173
l-6 80 51 18 c81 28 109 73 77 123 -32 48 -51 48 -228 -11 -198 -66 -228 -91
-197 -158 18 -40 51 -52 100 -38 22 7 43 11 45 9 4 -5 24 -292 19 -296 -1 -2
-204 250 -450 560 -246 309 -444 564 -439 566 29 11 1770 611 1776 611 4 1 0
-16 -9 -36z m1502 -248 c286 -46 545 -210 705 -445 59 -87 124 -229 152 -330
20 -75 23 -107 22 -265 0 -166 -3 -187 -28 -270 -58 -193 -141 -332 -280 -470
-153 -152 -348 -252 -561 -286 -98 -16 -287 -13 -371 5 -276 59 -511 215 -667
443 -197 289 -231 664 -92 995 41 96 124 222 202 307 l59 65 26 -35 c14 -19
154 -221 312 -449 158 -228 303 -430 322 -447 38 -37 77 -42 124 -18 72 37 81
113 23 196 -20 30 -163 236 -318 459 -155 223 -285 410 -288 417 -9 14 90 62
191 93 164 50 310 61 467 35z m-3158 -895 c164 -206 359 -451 432 -543 l134
-169 -23 -49 c-13 -27 -26 -78 -29 -116 l-6 -66 -54 -19 c-30 -10 -56 -16 -58
-15 -1 2 -25 48 -52 103 -147 298 -418 542 -721 650 -36 13 -65 27 -64 31 8
57 130 573 135 571 4 -2 142 -172 306 -378z m-734 -407 c2 -5 -51 -249 -119
-543 -68 -294 -123 -552 -124 -573 -1 -82 57 -134 134 -123 23 4 269 85 546
180 l505 174 8 -37 c5 -20 6 -90 4 -156 -12 -270 -110 -496 -301 -693 -192
-199 -419 -298 -706 -309 -102 -4 -156 -1 -224 11 -460 87 -799 451 -856 921
-59 479 272 975 740 1109 129 37 381 61 393 39z m381 -105 c194 -98 367 -273
466 -470 l41 -82 -38 -14 c-356 -125 -817 -282 -820 -278 -4 4 194 884 202
897 5 8 84 -20 149 -53z m1316 -185 c119 -48 172 -189 116 -308 -44 -95 -121
-140 -228 -133 -56 4 -75 11 -114 40 -226 162 -32 506 226 401z"/>
<path d="M12210 5115 l0 -915 210 0 210 0 2 286 3 287 208 -287 208 -286 261
0 261 0 -20 23 c-105 116 -554 660 -551 667 2 5 128 160 281 344 152 184 277
337 277 340 0 3 -115 6 -255 6 l-254 0 -211 -282 -210 -282 0 507 0 507 -210
0 -210 0 0 -915z"/>
<path d="M7210 5065 l0 -865 210 0 210 0 0 518 1 517 193 -515 193 -515 170
-3 171 -2 10 27 c44 125 366 981 373 993 5 9 9 -198 9 -502 l0 -518 210 0 210
0 0 865 0 865 -249 0 -248 0 -239 -595 c-132 -327 -241 -595 -244 -595 -3 0
-113 268 -245 595 l-240 595 -247 0 -248 0 0 -865z"/>
<path d="M9915 5590 c-239 -33 -429 -212 -496 -467 -11 -43 -23 -127 -26 -188
-19 -378 174 -675 483 -740 87 -19 151 -19 239 0 98 21 170 59 243 130 l62 61
0 -93 0 -93 210 0 210 0 0 690 0 690 -210 0 -210 0 0 -94 0 -94 -62 62 c-65
64 -144 108 -219 125 -72 15 -160 20 -224 11z m346 -397 c112 -63 166 -180
157 -338 -5 -65 -12 -99 -32 -140 -109 -222 -426 -220 -532 3 -35 74 -45 210
-21 293 41 140 158 223 303 216 57 -3 83 -10 125 -34z"/>
<path d="M15820 5589 c-257 -31 -433 -183 -448 -388 -13 -183 73 -309 258
-380 41 -16 140 -45 220 -66 80 -21 168 -48 196 -61 136 -64 73 -204 -92 -204
-91 0 -164 42 -197 113 l-22 47 -204 0 -204 0 7 -47 c3 -27 22 -80 41 -119 65
-132 208 -238 380 -280 98 -24 316 -24 405 0 146 40 265 127 317 234 37 75 44
202 17 288 -19 62 -90 149 -155 189 -48 31 -178 76 -330 115 -205 53 -262 92
-243 167 14 58 59 83 149 83 99 0 151 -27 185 -98 l25 -52 192 0 193 0 -7 33
c-11 64 -45 151 -77 201 -109 171 -341 257 -606 225z"/>
<path d="M11885 5576 c-27 -7 -66 -20 -85 -28 -58 -26 -155 -103 -191 -153
l-34 -47 -3 116 -3 116 -209 0 -210 0 0 -690 0 -690 209 0 210 0 3 373 c3 325
6 378 21 417 41 104 125 148 300 157 l107 6 0 218 0 219 -32 -1 c-18 0 -55 -6
-83 -13z"/>
<path d="M13723 5108 c3 -413 6 -481 21 -532 56 -192 187 -325 361 -371 76
-19 214 -19 290 0 82 22 167 69 225 127 l50 49 0 -90 0 -91 210 0 210 0 0 690
0 690 -210 0 -210 0 0 -408 c0 -452 -3 -475 -62 -546 -46 -56 -116 -86 -203
-86 -114 1 -184 41 -233 135 l-27 50 -3 428 -3 427 -210 0 -210 0 4 -472z"/>
<path d="M7578 2706 c-75 -21 -123 -58 -153 -121 -87 -176 70 -355 277 -317
74 14 131 51 164 107 86 148 -10 319 -191 339 -28 3 -70 0 -97 -8z"/>
<path d="M8170 1655 l0 -915 210 0 210 0 2 286 3 287 208 -287 208 -286 261 0
261 0 -20 23 c-105 116 -554 660 -551 667 2 5 128 160 281 344 152 184 277
337 277 340 0 3 -115 6 -255 6 l-254 0 -211 -282 -210 -282 0 507 0 507 -210
0 -210 0 0 -915z"/>
<path d="M13260 1655 l0 -915 210 0 210 0 0 414 c0 447 1 462 56 533 13 18 46
45 72 60 41 25 57 28 132 28 68 0 93 -5 125 -22 53 -28 89 -68 117 -128 23
-49 23 -56 26 -468 l3 -417 205 0 204 0 0 463 c0 508 -2 531 -62 656 -38 80
-131 177 -206 215 -102 52 -254 70 -374 45 -82 -17 -191 -74 -247 -128 l-51
-49 -2 311 -3 312 -207 3 -208 2 0 -915z"/>
<path d="M12210 2489 c-100 -12 -171 -34 -252 -76 -178 -93 -259 -229 -259
-433 0 -151 35 -236 138 -331 75 -69 147 -103 385 -185 119 -40 213 -78 245
-99 194 -128 45 -360 -189 -295 -70 20 -137 102 -138 168 l0 22 -226 0 -226 0
7 -57 c36 -295 292 -476 670 -475 190 0 314 38 438 131 178 133 243 400 147
598 -64 129 -173 201 -473 307 -272 97 -327 135 -334 228 -6 70 19 115 77 146
112 57 263 -3 292 -115 l10 -43 224 0 224 0 0 33 c0 97 -61 228 -142 308 -133
131 -377 197 -618 168z"/>
<path d="M5810 1604 l0 -865 478 4 c516 4 525 5 647 62 175 80 265 236 252
435 -5 90 -33 167 -85 235 -45 59 -126 118 -187 136 -52 15 -56 24 -17 34 77
19 177 111 221 204 23 50 26 67 26 171 0 98 -4 124 -24 175 -32 80 -122 170
-211 213 -122 57 -172 62 -660 62 l-440 0 0 -866z m761 526 c99 -19 149 -77
149 -174 0 -79 -23 -123 -81 -156 -42 -24 -53 -25 -226 -28 l-183 -4 0 180 c0
98 3 182 7 185 10 11 274 8 334 -3z m84 -689 c78 -35 123 -120 110 -205 -10
-58 -37 -98 -87 -126 -41 -24 -52 -25 -245 -28 l-203 -3 0 190 0 191 193 0
c165 0 198 -3 232 -19z"/>
<path d="M10204 2129 c-289 -34 -502 -218 -571 -494 -24 -98 -24 -326 1 -414
67 -245 225 -406 463 -473 102 -28 295 -31 393 -5 187 49 339 168 418 326 23
46 42 94 42 107 l0 24 -220 0 -219 0 -15 -27 c-65 -126 -266 -148 -381 -42
-45 42 -85 124 -85 174 l0 25 475 0 475 0 6 26 c10 41 -3 232 -20 299 -60 225
-234 397 -460 454 -90 23 -211 31 -302 20z m237 -366 c62 -35 108 -98 116
-162 l6 -41 -267 0 c-164 0 -266 4 -266 10 0 32 45 121 77 152 66 63 111 79
209 74 58 -2 83 -9 125 -33z"/>
<path d="M15453 2130 c-306 -34 -538 -242 -598 -539 -21 -101 -16 -284 9 -376
47 -169 176 -332 321 -407 228 -118 530 -113 753 13 82 46 199 169 244 254 60
116 82 209 81 355 0 94 -6 144 -21 203 -92 339 -409 539 -789 497z m219 -384
c116 -57 176 -183 165 -351 -11 -187 -122 -306 -285 -307 -155 -1 -263 102
-280 269 -20 198 37 332 168 393 56 26 175 24 232 -4z"/>
<path d="M17254 2130 c-117 -18 -191 -55 -281 -143 l-63 -61 0 97 0 97 -207
-2 -208 -3 0 -1015 0 -1015 208 -3 207 -2 0 425 0 425 59 -59 c171 -171 452
-198 672 -65 128 77 235 234 280 409 29 114 29 307 0 429 -56 234 -216 412
-422 469 -69 20 -180 27 -245 17z m55 -376 c61 -18 141 -86 171 -144 27 -52
44 -153 37 -218 -10 -87 -34 -147 -84 -202 -62 -69 -110 -92 -204 -98 -67 -4
-84 -1 -131 20 -99 46 -156 121 -178 236 -26 131 6 249 89 333 85 85 182 109
300 73z"/>
<path d="M7440 1430 l0 -690 210 0 210 0 0 690 0 690 -210 0 -210 0 0 -690z"/>
</g>
</svg>
